<svg width="20" height="20" viewBox="0 0 20 20" fill="none" xmlns="http://www.w3.org/2000/svg">
<path fill-rule="evenodd" clip-rule="evenodd" d="M18.3147 15.5557C19.4135 13.9112 20 11.9778 20 10C19.9972 7.3487 18.9428 4.80679 17.068 2.93203C15.1932 1.05727 12.6513 0.00279983 10 0C8.0222 0 6.0888 0.58649 4.44431 1.68531C2.79981 2.78412 1.51809 4.34591 0.76121 6.17317C0.00433285 8.00043 -0.193701 10.0111 0.192152 11.9509C0.578004 13.8907 1.53041 15.6726 2.92894 17.0711C4.32747 18.4696 6.1093 19.422 8.04911 19.8079C9.98892 20.1937 11.9996 19.9957 13.8268 19.2388C15.6541 18.4819 17.2159 17.2002 18.3147 15.5557ZM17.0355 5.29903C17.9653 6.69052 18.4616 8.32647 18.4616 10C18.459 12.2434 17.5667 14.3941 15.9804 15.9804C14.3941 17.5667 12.2434 18.459 10 18.4616C8.32648 18.4616 6.69052 17.9653 5.29903 17.0355C3.90754 16.1058 2.823 14.7842 2.18256 13.2381C1.54213 11.692 1.37456 9.99062 1.70105 8.34924C2.02754 6.70786 2.83343 5.20016 4.0168 4.01679C5.20016 2.83342 6.70787 2.02754 8.34925 1.70105C9.99063 1.37456 11.692 1.54213 13.2381 2.18256C14.7843 2.82299 16.1058 3.90753 17.0355 5.29903ZM9.23083 14.1507V15.3846H10.7693V14.1507H9.23083ZM9.23083 4.61541V12.6923H10.7693V4.61541H9.23083Z" fill="#878787"/>
</svg>
