<svg width="57" height="48" viewBox="0 0 57 48" fill="none" xmlns="http://www.w3.org/2000/svg">
<path d="M47.5004 12.8008H1.58374V44.8008H47.5004V12.8008Z" stroke="#333333" stroke-miterlimit="10"/>
<path d="M9.5 12.8012V3.20117H55.4166V35.2011H47.5" stroke="#333333" stroke-miterlimit="10"/>
<path d="M17.4162 38.4002C22.6412 38.4002 26.9162 34.0802 26.9162 28.8002C26.9162 23.5202 22.6412 19.2002 17.4162 19.2002C12.1913 19.2002 7.91626 23.5202 7.91626 28.8002C7.91626 34.0802 12.1913 38.4002 17.4162 38.4002Z" stroke="#333333" stroke-miterlimit="10"/>
<path d="M31.6663 38.4002C36.8913 38.4002 41.1663 34.0802 41.1663 28.8002C41.1663 23.5202 36.8913 19.2002 31.6663 19.2002C26.4413 19.2002 22.1663 23.5202 22.1663 28.8002C22.1663 34.0802 26.4413 38.4002 31.6663 38.4002Z" stroke="#333333" stroke-miterlimit="10"/>
</svg>
