<svg width="57" height="48" viewBox="0 0 57 48" fill="none" xmlns="http://www.w3.org/2000/svg">
<g clip-path="url(#clip0_245_5530)">
<path d="M56.5 24C56.5 36.9016 44.0479 47.5 28.5 47.5C12.9521 47.5 0.5 36.9016 0.5 24C0.5 11.0984 12.9521 0.5 28.5 0.5C44.0479 0.5 56.5 11.0984 56.5 24Z" stroke="#333333"/>
<path d="M44.2858 24C44.2858 30.5407 42.4859 36.4399 39.6021 40.6898C36.7164 44.9424 32.7822 47.5 28.5001 47.5C24.218 47.5 20.2838 44.9424 17.3981 40.6898C14.5142 36.4399 12.7144 30.5407 12.7144 24C12.7144 17.4593 14.5142 11.5601 17.3981 7.31019C20.2838 3.05756 24.218 0.5 28.5001 0.5C32.7822 0.5 36.7164 3.05756 39.6021 7.31019C42.4859 11.5601 44.2858 17.4593 44.2858 24Z" stroke="#333333"/>
<path d="M6.78579 9.6001C6.78579 11.8724 16.5076 13.7144 28.5001 13.7144C40.4925 13.7144 50.2144 11.8724 50.2144 9.6001" stroke="#333333"/>
<path d="M50.2142 38.3999C50.2142 36.1276 40.4924 34.2856 28.4999 34.2856C16.5075 34.2856 6.78564 36.1276 6.78564 38.3999" stroke="#333333"/>
<path d="M28.5 0.685547V46.6284" stroke="#333333"/>
<path d="M55.6428 23.3145L1.35711 23.3145" stroke="#333333"/>
<path d="M11.3572 36.1545V12.8428H45.6429V36.1545H11.3572Z" fill="#F5F3F1" stroke="#333333" stroke-miterlimit="10"/>
<path d="M24.4903 30.1711C27.5778 30.1711 30.104 27.6184 30.104 24.4984C30.104 21.3784 27.5778 18.8257 24.4903 18.8257C21.4028 18.8257 18.8767 21.3784 18.8767 24.4984C18.8767 27.6184 21.4028 30.1711 24.4903 30.1711Z" fill="#F5F3F1" stroke="#333333" stroke-miterlimit="10"/>
<path d="M32.5099 30.1711C35.5974 30.1711 38.1235 27.6184 38.1235 24.4984C38.1235 21.3784 35.5974 18.8257 32.5099 18.8257C29.4224 18.8257 26.8962 21.3784 26.8962 24.4984C26.8962 27.6184 29.4224 30.1711 32.5099 30.1711Z" fill="#F5F3F1" stroke="#333333" stroke-miterlimit="10"/>
</g>
<defs>
<clipPath id="clip0_245_5530">
<rect width="57" height="48" fill="white"/>
</clipPath>
</defs>
</svg>
