<svg width="40" height="40" viewBox="0 0 40 40" fill="none" xmlns="http://www.w3.org/2000/svg">
<g clip-path="url(#clip0_241_906)">
<path d="M18.2117 0.0683327C14.4521 0.404354 10.7785 1.87346 7.65983 4.27249C6.80787 4.9289 4.9398 6.79655 4.28324 7.64832C2.6184 9.8051 1.42252 12.1807 0.742513 14.6579C-0.953599 20.8391 0.320439 27.2078 4.28324 32.3419C4.9398 33.1936 6.80787 35.0613 7.65983 35.7177C9.8171 37.3822 12.1932 38.5778 14.6709 39.2576C20.8535 40.9534 27.2237 39.6796 32.359 35.7177C33.2109 35.0613 35.079 33.1936 35.7356 32.3419C37.4004 30.1851 38.5963 27.8095 39.2763 25.3323C40.9724 19.1511 39.6984 12.7824 35.7356 7.64832C35.079 6.79655 33.2109 4.9289 32.359 4.27249C28.2477 1.09984 23.2531 -0.377087 18.2117 0.0683327ZM22.1588 2.02975C28.3727 2.74868 33.8909 6.78873 36.4859 12.5245C37.5802 14.9392 38.0882 17.3069 38.0882 19.9951C38.0882 22.6833 37.5802 25.051 36.4859 27.4657C33.8831 33.2171 28.5056 37.1556 22.1198 37.9683C21.1662 38.0933 18.8526 38.0933 17.899 37.9683C14.8976 37.5853 12.0603 36.5148 9.69204 34.8581C5.42441 31.873 2.69656 27.3406 2.03218 22.105C1.90712 21.1516 1.90712 18.8386 2.03218 17.8852C2.75909 12.2119 5.87774 7.39825 10.7238 4.47567C14.1316 2.42048 18.1257 1.5687 22.1588 2.02975Z" fill="#333333"/>
<path d="M19.0625 13.5391V20.4297L22.8125 24.1797L26.5625 27.9297L27.2422 27.2422L27.9297 26.5625L24.4297 23.0625L20.9375 19.5703V13.1016V6.64062H20H19.0625V13.5391Z" fill="#333333"/>
</g>
<defs>
<clipPath id="clip0_241_906">
<rect width="40" height="40" fill="white"/>
</clipPath>
</defs>
</svg>
