<svg width="80" height="80" viewBox="0 0 80 80" fill="none" xmlns="http://www.w3.org/2000/svg">
<g clip-path="url(#clip0_640_550)">
<path d="M34.4015 4.14825C36.6965 -0.484156 43.3036 -0.484156 45.5986 4.14825C47.6032 8.1946 52.544 9.79997 56.5442 7.70471C61.1238 5.30597 66.469 9.18953 65.6029 14.2862C64.8463 18.7381 67.8999 22.941 72.3676 23.5971C77.4825 24.3483 79.5242 30.632 75.8277 34.2462C72.5989 37.4031 72.5989 42.5982 75.8277 45.7551C79.5242 49.3693 77.4825 55.653 72.3676 56.4042C67.8999 57.0603 64.8463 61.2632 65.6029 65.7151C66.469 70.8118 61.1238 74.6953 56.5442 72.2966C52.544 70.2013 47.6032 71.8067 45.5986 75.853C43.3036 80.4854 36.6965 80.4854 34.4015 75.853C32.3968 71.8067 27.456 70.2013 23.4558 72.2966C18.8763 74.6953 13.531 70.8118 14.3972 65.7151C15.1538 61.2632 12.1002 57.0603 7.63242 56.4042C2.51755 55.653 0.475845 49.3693 4.17233 45.7551C7.40117 42.5982 7.40117 37.4031 4.17233 34.2462C0.475847 30.632 2.51755 24.3483 7.63242 23.5971C12.1002 22.941 15.1538 18.7381 14.3972 14.2862C13.531 9.18953 18.8763 5.30597 23.4558 7.70471C27.456 9.79997 32.3968 8.1946 34.4015 4.14825Z" stroke="#333333" stroke-width="1.8"/>
<circle cx="40" cy="39.9996" r="22.0508" stroke="#333333" stroke-width="1.8"/>
<circle cx="34.7541" cy="34.7542" r="3.69016" stroke="#333333" stroke-width="1.8"/>
<circle cx="45.2459" cy="45.2464" r="3.69016" stroke="#333333" stroke-width="1.8"/>
<path d="M49.8361 30.1641L30.1639 49.8362" stroke="#333333" stroke-width="1.8" stroke-linecap="round"/>
</g>
<defs>
<clipPath id="clip0_640_550">
<rect width="80" height="80" fill="white"/>
</clipPath>
</defs>
</svg>
