<svg width="26" height="23" viewBox="0 0 26 23" fill="none" xmlns="http://www.w3.org/2000/svg">
<path d="M18.4796 0.53125C16.2239 0.53125 14.2489 1.53719 13.0178 3.23754C11.7867 1.53719 9.81176 0.53125 7.55605 0.53125C5.76046 0.533349 4.039 1.27399 2.76933 2.59069C1.49966 3.90738 0.785471 5.6926 0.783447 7.55469C0.783447 15.4844 12.121 21.9029 12.6038 22.168C12.7311 22.239 12.8733 22.2761 13.0178 22.2761C13.1623 22.2761 13.3046 22.239 13.4318 22.168C13.9146 21.9029 25.2522 15.4844 25.2522 7.55469C25.2502 5.6926 24.536 3.90738 23.2663 2.59069C21.9966 1.27399 20.2752 0.533349 18.4796 0.53125ZM13.0178 20.3328C11.0232 19.1275 2.53122 13.6368 2.53122 7.55469C2.53295 6.17321 3.06291 4.84883 4.00487 3.87198C4.94683 2.89513 6.22391 2.34555 7.55605 2.34375C9.68068 2.34375 11.4645 3.51734 12.2095 5.40234C12.2753 5.56856 12.3873 5.71073 12.5313 5.81078C12.6752 5.91083 12.8445 5.96425 13.0178 5.96425C13.1911 5.96425 13.3605 5.91083 13.5044 5.81078C13.6483 5.71073 13.7603 5.56856 13.8262 5.40234C14.5711 3.51394 16.355 2.34375 18.4796 2.34375C19.8117 2.34555 21.0888 2.89513 22.0308 3.87198C22.9727 4.84883 23.5027 6.17321 23.5044 7.55469C23.5044 13.6277 15.0103 19.1264 13.0178 20.3328Z" fill="#333333"/>
</svg>
