<svg width="74" height="74" viewBox="0 0 74 74" fill="none" xmlns="http://www.w3.org/2000/svg">
<path d="M32.1977 5.05258C34.7089 2.62333 38.6941 2.62333 41.2052 5.05258C42.8628 6.6562 45.1678 7.40511 47.4514 7.0821C50.9108 6.59279 54.1349 8.93524 54.7386 12.3765C55.1371 14.6482 56.5616 16.6089 58.599 17.6899C61.6853 19.3274 62.9168 23.1176 61.3824 26.2565C60.3695 28.3286 60.3695 30.7521 61.3824 32.8242C62.9168 35.963 61.6853 39.7532 58.599 41.3907C56.5616 42.4717 55.1371 44.4324 54.7386 46.7041C54.1349 50.1454 50.9108 52.4879 47.4514 51.9985C45.1678 51.6755 42.8628 52.4244 41.2052 54.0281C38.6941 56.4573 34.7088 56.4573 32.1977 54.0281C30.5401 52.4244 28.2352 51.6755 25.9515 51.9985C22.4921 52.4879 19.268 50.1454 18.6643 46.7041C18.2659 44.4324 16.8413 42.4717 14.804 41.3907C11.7176 39.7532 10.4861 35.9631 12.0205 32.8242C13.0334 30.7521 13.0334 28.3286 12.0205 26.2565C10.4861 23.1176 11.7176 19.3274 14.804 17.6899C16.8413 16.6089 18.2659 14.6482 18.6643 12.3765C19.268 8.93524 22.4921 6.59279 25.9515 7.0821C28.2352 7.40511 30.5401 6.6562 32.1977 5.05258Z" stroke="#333333"/>
<path d="M52.6126 29.2419C52.6126 38.2028 45.4804 45.4516 36.7013 45.4516C27.9222 45.4516 20.79 38.2028 20.79 29.2419C20.79 20.281 27.9222 13.0322 36.7013 13.0322C45.4804 13.0322 52.6126 20.281 52.6126 29.2419Z" stroke="#333333"/>
<path d="M29.2417 29.402L35.3073 34.613L44.1611 23.8711" stroke="#333333" stroke-linecap="round" stroke-linejoin="round"/>
<path fill-rule="evenodd" clip-rule="evenodd" d="M19.4225 49.7192L11.329 63.7376C10.8238 64.6127 11.7872 65.5995 12.6741 65.1153L20.6863 60.7421C21.3434 60.3834 22.1471 60.8474 22.1651 61.5959L22.3838 70.7212C22.408 71.7314 23.7443 72.0723 24.2495 71.1973L33.3241 55.4796C33.0347 55.3194 32.7543 55.137 32.4853 54.9325L23.3835 70.6973L23.1648 61.5719C23.1289 60.0751 21.5214 59.147 20.2071 59.8643L12.195 64.2376L20.1137 50.522C19.8642 50.2732 19.6329 50.005 19.4225 49.7192Z" fill="#333333"/>
<path fill-rule="evenodd" clip-rule="evenodd" d="M41.5771 54.3637L51.3771 71.3377C51.8823 72.2128 53.2186 71.8719 53.2428 70.8617L53.4615 61.7363C53.4795 60.9879 54.2832 60.5239 54.9403 60.8825L62.9525 65.2558C63.8394 65.7399 64.8028 64.7531 64.2976 63.878L54.99 47.7568C54.8591 48.1582 54.6937 48.5415 54.4977 48.9041L63.4316 64.378L55.4194 60.0048C54.1052 59.2874 52.4977 60.2155 52.4618 61.7124L52.2431 70.8377L42.3585 53.7172C42.0846 53.9121 41.8233 54.1279 41.5771 54.3637Z" fill="#333333"/>
</svg>
