<svg width="14" height="13" viewBox="0 0 14 13" fill="none" xmlns="http://www.w3.org/2000/svg">
<path d="M4.39209 12.0294C3.63554 12.4858 2.70216 11.8086 2.90129 10.9478L3.45182 8.56781C3.53529 8.20695 3.41247 7.8295 3.13261 7.58687L1.28498 5.98503C0.617448 5.4063 0.973397 4.3096 1.85356 4.2332L4.29988 4.02084C4.66905 3.9888 4.99024 3.75522 5.13451 3.41389L6.07889 1.17941C6.42303 0.365147 7.57697 0.365147 7.92111 1.17941L8.86549 3.41389C9.00976 3.75522 9.33095 3.9888 9.70012 4.02084L12.1464 4.2332C13.0266 4.3096 13.3826 5.4063 12.715 5.98503L10.8674 7.58687C10.5875 7.8295 10.4647 8.20695 10.5482 8.56781L11.0987 10.9478C11.2978 11.8086 10.3645 12.4858 9.60791 12.0294L7.51653 10.7678C7.19884 10.5762 6.80116 10.5762 6.48347 10.7678L4.39209 12.0294Z" fill="#FF900E"/>
</svg>
