<svg width="49" height="48" viewBox="0 0 49 48" fill="none" xmlns="http://www.w3.org/2000/svg">
<path d="M33.8602 0.685547H1.42847V47.4238H33.8602V0.685547Z" stroke="#333333" stroke-miterlimit="10" stroke-linecap="round" stroke-linejoin="round"/>
<path d="M29.2503 5.12891H6.03931V20.7631H29.2503V5.12891Z" stroke="#333333" stroke-miterlimit="10" stroke-linecap="round" stroke-linejoin="round"/>
<path d="M7.94695 30.8014C9.26397 30.8014 10.3317 29.6962 10.3317 28.3328C10.3317 26.9695 9.26397 25.8643 7.94695 25.8643C6.62992 25.8643 5.56226 26.9695 5.56226 28.3328C5.56226 29.6962 6.62992 30.8014 7.94695 30.8014Z" stroke="#333333" stroke-miterlimit="10"/>
<path d="M17.3264 30.8014C18.6434 30.8014 19.7111 29.6962 19.7111 28.3328C19.7111 26.9695 18.6434 25.8643 17.3264 25.8643C16.0093 25.8643 14.9417 26.9695 14.9417 28.3328C14.9417 29.6962 16.0093 30.8014 17.3264 30.8014Z" stroke="#333333" stroke-miterlimit="10"/>
<path d="M26.8646 30.8014C28.1816 30.8014 29.2493 29.6962 29.2493 28.3328C29.2493 26.9695 28.1816 25.8643 26.8646 25.8643C25.5476 25.8643 24.48 26.9695 24.48 28.3328C24.48 29.6962 25.5476 30.8014 26.8646 30.8014Z" stroke="#333333" stroke-miterlimit="10"/>
<path d="M7.94695 40.8405C9.26397 40.8405 10.3317 39.7352 10.3317 38.3719C10.3317 37.0086 9.26397 35.9033 7.94695 35.9033C6.62992 35.9033 5.56226 37.0086 5.56226 38.3719C5.56226 39.7352 6.62992 40.8405 7.94695 40.8405Z" stroke="#333333" stroke-miterlimit="10"/>
<path d="M17.3264 40.8405C18.6434 40.8405 19.7111 39.7352 19.7111 38.3719C19.7111 37.0086 18.6434 35.9033 17.3264 35.9033C16.0093 35.9033 14.9417 37.0086 14.9417 38.3719C14.9417 39.7352 16.0093 40.8405 17.3264 40.8405Z" stroke="#333333" stroke-miterlimit="10"/>
<path d="M26.7057 40.8405C28.0227 40.8405 29.0903 39.7352 29.0903 38.3719C29.0903 37.0086 28.0227 35.9033 26.7057 35.9033C25.3887 35.9033 24.321 37.0086 24.321 38.3719C24.321 39.7352 25.3887 40.8405 26.7057 40.8405Z" stroke="#333333" stroke-miterlimit="10"/>
<path d="M47.8511 6.44434V37.5483" stroke="#333333" stroke-miterlimit="10" stroke-linecap="round" stroke-linejoin="round"/>
<path d="M33.8608 6.44434H47.851" stroke="#333333" stroke-miterlimit="10" stroke-linecap="round" stroke-linejoin="round"/>
<path d="M34.1787 37.5508H47.851" stroke="#333333" stroke-miterlimit="10" stroke-linecap="round" stroke-linejoin="round"/>
<path d="M42.9221 6.44434V37.5483" stroke="#333333" stroke-miterlimit="10" stroke-linecap="round" stroke-linejoin="round"/>
</svg>
