<svg width="53" height="52" viewBox="0 0 53 52" fill="none" xmlns="http://www.w3.org/2000/svg">
<g filter="url(#filter0_d_241_764)">
<rect x="4" width="45" height="44" rx="22" fill="#333333" shape-rendering="crispEdges"/>
<path d="M11.72 23.784V22.65H15.32V23.784H11.72ZM20.3264 27V25.572H16.4984V24.222L19.2644 18.36H20.9144L18.1484 24.222H20.3264V21.972H21.7904V24.222H22.6004V25.572H21.7904V27H20.3264ZM27.4866 27V25.572H23.6586V24.222L26.4246 18.36H28.0746L25.3086 24.222H27.4866V21.972H28.9506V24.222H29.7606V25.572H28.9506V27H27.4866ZM32.3994 27L31.4394 26.04L39.1254 18.36L40.0854 19.326L32.3994 27ZM38.2854 27.18C37.8894 27.18 37.5274 27.084 37.1994 26.892C36.8754 26.696 36.6154 26.436 36.4194 26.112C36.2234 25.784 36.1254 25.42 36.1254 25.02C36.1254 24.628 36.2254 24.268 36.4254 23.94C36.6254 23.612 36.8894 23.35 37.2174 23.154C37.5454 22.958 37.9014 22.86 38.2854 22.86C38.6814 22.86 39.0434 22.958 39.3714 23.154C39.6994 23.346 39.9594 23.606 40.1514 23.934C40.3474 24.258 40.4454 24.62 40.4454 25.02C40.4454 25.42 40.3474 25.784 40.1514 26.112C39.9594 26.436 39.6994 26.696 39.3714 26.892C39.0434 27.084 38.6814 27.18 38.2854 27.18ZM38.2854 25.944C38.4494 25.944 38.6014 25.902 38.7414 25.818C38.8854 25.734 38.9994 25.622 39.0834 25.482C39.1674 25.342 39.2094 25.188 39.2094 25.02C39.2094 24.852 39.1674 24.698 39.0834 24.558C38.9994 24.418 38.8854 24.306 38.7414 24.222C38.6014 24.138 38.4494 24.096 38.2854 24.096C38.1174 24.096 37.9634 24.138 37.8234 24.222C37.6834 24.306 37.5694 24.418 37.4814 24.558C37.3974 24.698 37.3554 24.852 37.3554 25.02C37.3554 25.188 37.3974 25.342 37.4814 25.482C37.5694 25.622 37.6834 25.734 37.8234 25.818C37.9634 25.902 38.1174 25.944 38.2854 25.944ZM33.2394 22.5C32.8434 22.5 32.4814 22.404 32.1534 22.212C31.8254 22.016 31.5634 21.756 31.3674 21.432C31.1754 21.104 31.0794 20.74 31.0794 20.34C31.0794 19.948 31.1794 19.588 31.3794 19.26C31.5794 18.932 31.8434 18.67 32.1714 18.474C32.4994 18.278 32.8554 18.18 33.2394 18.18C33.6354 18.18 33.9954 18.278 34.3194 18.474C34.6474 18.666 34.9094 18.926 35.1054 19.254C35.3014 19.578 35.3994 19.94 35.3994 20.34C35.3994 20.74 35.3014 21.104 35.1054 21.432C34.9094 21.756 34.6474 22.016 34.3194 22.212C33.9954 22.404 33.6354 22.5 33.2394 22.5ZM33.2394 21.264C33.4074 21.264 33.5614 21.222 33.7014 21.138C33.8414 21.054 33.9534 20.942 34.0374 20.802C34.1214 20.662 34.1634 20.508 34.1634 20.34C34.1634 20.172 34.1214 20.018 34.0374 19.878C33.9534 19.738 33.8414 19.626 33.7014 19.542C33.5614 19.458 33.4074 19.416 33.2394 19.416C33.0714 19.416 32.9174 19.458 32.7774 19.542C32.6374 19.626 32.5254 19.738 32.4414 19.878C32.3574 20.018 32.3154 20.172 32.3154 20.34C32.3154 20.508 32.3574 20.662 32.4414 20.802C32.5254 20.942 32.6374 21.054 32.7774 21.138C32.9174 21.222 33.0714 21.264 33.2394 21.264Z" fill="white"/>
</g>
<defs>
<filter id="filter0_d_241_764" x="0" y="0" width="53" height="52" filterUnits="userSpaceOnUse" color-interpolation-filters="sRGB">
<feFlood flood-opacity="0" result="BackgroundImageFix"/>
<feColorMatrix in="SourceAlpha" type="matrix" values="0 0 0 0 0 0 0 0 0 0 0 0 0 0 0 0 0 0 127 0" result="hardAlpha"/>
<feOffset dy="4"/>
<feGaussianBlur stdDeviation="2"/>
<feComposite in2="hardAlpha" operator="out"/>
<feColorMatrix type="matrix" values="0 0 0 0 0 0 0 0 0 0 0 0 0 0 0 0 0 0 0.25 0"/>
<feBlend mode="normal" in2="BackgroundImageFix" result="effect1_dropShadow_241_764"/>
<feBlend mode="normal" in="SourceGraphic" in2="effect1_dropShadow_241_764" result="shape"/>
</filter>
</defs>
</svg>
