<svg width="81" height="80" viewBox="0 0 81 80" fill="none" xmlns="http://www.w3.org/2000/svg">
<g clip-path="url(#clip0_640_560)">
<circle cx="40.5" cy="40" r="39.1" stroke="#333333" stroke-width="1.8"/>
<path d="M47.0574 17.7051H18.205V62.2952H62.7951V38.6887" stroke="#333333" stroke-width="1.8" stroke-linecap="round"/>
<path d="M38.2842 53.2285L38.873 52.5477L38.2842 53.2285C38.6874 53.5772 39.2194 53.7387 39.7484 53.673L39.6376 52.7799L39.7484 53.673C40.2774 53.6074 40.7538 53.3207 41.0595 52.884L40.3222 52.3678L41.0595 52.884L64.0103 20.0971L63.2805 19.5862L64.0103 20.0971C64.6069 19.2448 64.3996 18.0704 63.5474 17.4738L63.0313 18.2111L63.5474 17.4738C62.6951 16.8772 61.5207 17.0845 60.9241 17.9367L39.1701 49.0139L28.6174 39.8873C27.8306 39.2068 26.641 39.293 25.9605 40.0798C25.28 40.8666 25.3662 42.0562 26.1531 42.7367L38.2842 53.2285Z" stroke="#333333" stroke-width="1.8" stroke-linecap="round" stroke-linejoin="round"/>
</g>
<defs>
<clipPath id="clip0_640_560">
<rect width="80" height="80" fill="white" transform="translate(0.5)"/>
</clipPath>
</defs>
</svg>
