<svg width="60" height="38" viewBox="0 0 60 38" fill="none" xmlns="http://www.w3.org/2000/svg">
<path d="M29.3203 0.494171C29.0391 0.623077 28.5 0.998077 28.1133 1.33792L27.4102 1.9473L26.8594 1.40823C25.8516 0.423859 26.1445 0.470734 20.6953 0.529327C15.3984 0.587921 14.9062 0.634796 12.4922 1.44339C6.23438 3.52933 1.48828 9.03714 0.28125 15.6114C-0.0117188 17.1934 -0.0117188 20.416 0.28125 21.9981C1.62891 29.2754 7.11328 35.041 14.2383 36.6817C15.8555 37.0567 17.3203 37.1739 20.2383 37.1739C23.0508 37.1621 23.1328 37.1504 23.4258 36.6114C23.6016 36.2832 23.4141 35.709 23.0742 35.5332C22.957 35.4629 21.6562 35.416 20.1328 35.416C16.1953 35.416 14.3086 35.1114 11.9531 34.1035C5.53125 31.3731 1.44141 24.9278 1.79297 18.0723C1.92188 15.6465 2.40234 13.7364 3.45703 11.5684C5.68359 6.9512 10.0078 3.62308 15.1758 2.53323C16.1016 2.33401 16.7695 2.31058 20.8008 2.31058H25.3594L30.0352 7.46683C32.6016 10.3028 34.7578 12.7403 34.8164 12.8926C34.875 13.0567 34.9219 17.8145 34.9219 24.295V35.416H30.6562C26.6602 35.416 26.3789 35.4278 26.1211 35.6387C25.7461 35.9434 25.7461 36.6465 26.1211 36.9512C26.3789 37.1621 26.6719 37.1739 30.8672 37.1739C34.8867 37.1739 35.3672 37.1504 35.7305 36.9629C36.4336 36.6114 36.6211 36.2364 36.6562 35.0528L36.7031 34.0098H47.4727H58.2422V35.7442C58.2422 37.3262 58.2656 37.502 58.4766 37.7364C58.8047 38.0879 59.4375 38.0879 59.7656 37.7364C60 37.4903 60 37.3614 60 31.291V25.0918L59.707 24.8106L59.4258 24.5176H48.0586H36.6914L36.6562 18.5059C36.6211 11.7442 36.6914 12.2832 35.6602 11.0762L35.1328 10.4668L35.8242 9.83401C36.1992 9.49417 36.7266 9.00198 37.0078 8.75589C37.8633 7.99417 38.0742 7.24417 37.6289 6.52933C37.5117 6.33011 36.3164 4.97073 34.9805 3.49417C32.9648 1.27933 32.4492 0.775421 31.9453 0.541046C31.1719 0.177765 30.0469 0.166046 29.3203 0.494171ZM31.5117 2.33401C32.1211 2.89651 35.9766 7.22073 35.9531 7.30276C35.9297 7.34964 35.4727 7.78323 34.9219 8.27542C33.9844 9.10745 33.9141 9.14261 33.7383 8.95511C33.5625 8.76761 29.25 3.96292 28.8164 3.48245C28.6055 3.24808 28.6172 3.22464 29.3086 2.62698C29.9531 2.0762 30.0703 2.01761 30.5977 2.01761C31.0547 2.01761 31.2305 2.0762 31.5117 2.33401ZM39.4922 26.9434C39.4922 27.7168 39.7852 28.1504 40.3242 28.1504C40.8984 28.1504 41.168 27.7989 41.2266 26.9903L41.2734 26.2754H42.668H44.0625V27.5293C44.0625 28.6543 44.0859 28.8067 44.3203 29.0528C44.4609 29.2051 44.6953 29.3223 44.8359 29.3223C45.5977 29.3223 45.8203 28.8887 45.8203 27.3887V26.2754H47.2266H48.6328V26.9434C48.6328 27.6934 48.9258 28.1504 49.418 28.1504C50.0508 28.1504 50.3906 27.6582 50.3906 26.7325V26.2754H51.7969H53.2031V29.2637V32.252H44.9414H36.6797V29.2637V26.2754H38.0859H39.4922V26.9434ZM58.2422 29.2637V32.252H56.6016H54.9609V29.2637V26.2754H56.6016H58.2422V29.2637Z" fill="#333333"/>
<path d="M16.3359 9.69336C14.707 10.0449 13.2773 10.8184 11.9648 12.0371C10.0195 13.8652 9.02344 16.1738 9.02344 18.8691C9.02344 21.459 10.043 23.8145 11.9414 25.6074C12.9727 26.5684 14.0508 27.2129 15.4687 27.6934C16.5117 28.0566 16.6875 28.0801 18.2227 28.0801C20.1562 28.0918 20.8711 27.9395 22.4414 27.1543C24.8555 25.9707 26.5781 23.8965 27.3281 21.2832C27.6797 20.0762 27.7031 17.7207 27.3867 16.5488C26.6484 13.8066 24.6797 11.4512 22.1953 10.3262C20.5195 9.56446 18.1055 9.30664 16.3359 9.69336ZM20.0977 11.4512C22.6172 12.084 24.6211 13.9356 25.5234 16.4551C25.7812 17.1934 25.8281 17.5098 25.8281 18.7168C25.8398 19.8652 25.793 20.2754 25.5703 21.002C24.6211 24.0723 21.9258 26.1816 18.75 26.3574C15.6797 26.5332 12.9258 24.9395 11.6016 22.2324C10.9922 21.002 10.7812 20.1348 10.7812 18.834C10.7812 17.5332 10.9922 16.666 11.6133 15.3887C12.5156 13.5371 14.5078 11.9434 16.4883 11.4629C17.4023 11.2402 19.2305 11.2285 20.0977 11.4512Z" fill="#333333"/>
<path d="M20.2009 35.4084H29.0954V37.2174H21.2562L20.2009 35.4084Z" fill="#333333"/>
</svg>
