<svg width="22" height="21" viewBox="0 0 22 21" fill="none" xmlns="http://www.w3.org/2000/svg">
<path d="M5.61413 20.2683C4.85854 20.7281 3.92189 20.0526 4.11958 19.1905L5.40639 13.5787C5.48867 13.2199 5.36713 12.8449 5.09001 12.6025L0.765757 8.82061C0.10257 8.2406 0.45917 7.14854 1.33685 7.07168L7.03831 6.57243C7.40831 6.54003 7.72987 6.30523 7.8734 5.96266L10.0777 0.701423C10.4204 -0.116681 11.5796 -0.116682 11.9223 0.701422L14.1266 5.96266C14.2701 6.30523 14.5917 6.54003 14.9617 6.57243L20.6632 7.07168C21.5408 7.14854 21.8974 8.2406 21.2342 8.82061L16.91 12.6025C16.6329 12.8449 16.5113 13.2199 16.5936 13.5787L17.8804 19.1905C18.0781 20.0526 17.1415 20.7281 16.3859 20.2683L11.5198 17.3071C11.2005 17.1128 10.7995 17.1128 10.4802 17.3071L5.61413 20.2683Z" fill="#FF900E"/>
</svg>
