<svg width="12" height="13" viewBox="0 0 12 13" fill="none" xmlns="http://www.w3.org/2000/svg">
<path d="M6.69231 9.5C6.69231 9.63692 6.65171 9.77077 6.57563 9.88462C6.49956 9.99847 6.39144 10.0872 6.26494 10.1396C6.13843 10.192 5.99923 10.2057 5.86494 10.179C5.73064 10.1523 5.60729 10.0864 5.51047 9.98953C5.41365 9.89271 5.34771 9.76935 5.321 9.63506C5.29428 9.50077 5.30799 9.36157 5.36039 9.23506C5.41279 9.10856 5.50153 9.00044 5.61538 8.92437C5.72923 8.84829 5.86308 8.80769 6 8.80769C6.18361 8.80769 6.3597 8.88063 6.48954 9.01046C6.61937 9.1403 6.69231 9.31639 6.69231 9.5ZM6 3.26923C4.72731 3.26923 3.69231 4.20096 3.69231 5.34615V5.57692C3.69231 5.69933 3.74094 5.81672 3.82749 5.90328C3.91405 5.98983 4.03144 6.03846 4.15385 6.03846C4.27626 6.03846 4.39365 5.98983 4.48021 5.90328C4.56676 5.81672 4.61539 5.69933 4.61539 5.57692V5.34615C4.61539 4.71154 5.23673 4.19231 6 4.19231C6.76327 4.19231 7.38462 4.71154 7.38462 5.34615C7.38462 5.98077 6.76327 6.5 6 6.5C5.87759 6.5 5.7602 6.54862 5.67364 6.63518C5.58709 6.72174 5.53846 6.83913 5.53846 6.96154V7.42308C5.53846 7.54548 5.58709 7.66288 5.67364 7.74943C5.7602 7.83599 5.87759 7.88461 6 7.88461C6.12241 7.88461 6.2398 7.83599 6.32636 7.74943C6.41291 7.66288 6.46154 7.54548 6.46154 7.42308V7.38154C7.51385 7.18827 8.30769 6.34885 8.30769 5.34615C8.30769 4.20096 7.27269 3.26923 6 3.26923ZM12 6.5C12 7.68669 11.6481 8.84672 10.9888 9.83342C10.3295 10.8201 9.39246 11.5891 8.2961 12.0433C7.19975 12.4974 5.99335 12.6162 4.82946 12.3847C3.66557 12.1532 2.59648 11.5818 1.75736 10.7426C0.918247 9.90352 0.346802 8.83443 0.115291 7.67054C-0.11622 6.50666 0.00259971 5.30025 0.456725 4.2039C0.910851 3.10754 1.67989 2.17047 2.66658 1.51118C3.65328 0.851894 4.81331 0.5 6 0.5C7.59078 0.50168 9.11593 1.13436 10.2408 2.25921C11.3656 3.38407 11.9983 4.90922 12 6.5ZM11.0769 6.5C11.0769 5.49588 10.7792 4.51431 10.2213 3.67941C9.66345 2.84452 8.87054 2.19379 7.94286 1.80953C7.01517 1.42527 5.99437 1.32473 5.00954 1.52063C4.02472 1.71652 3.1201 2.20005 2.41008 2.91007C1.70006 3.62009 1.21653 4.52471 1.02063 5.50954C0.824737 6.49437 0.925277 7.51517 1.30954 8.44285C1.6938 9.37054 2.34452 10.1634 3.17941 10.7213C4.01431 11.2792 4.99588 11.5769 6 11.5769C7.34602 11.5754 8.63646 11.04 9.58824 10.0882C10.54 9.13646 11.0754 7.84601 11.0769 6.5Z" fill="#878787"/>
</svg>
