<svg width="10" height="10" viewBox="0 0 10 10" fill="none" xmlns="http://www.w3.org/2000/svg">
<path d="M5 0C7.7615 0 10 2.2385 10 5C10 7.7615 7.7615 10 5 10C2.2385 10 0 7.7615 0 5C0 2.2385 2.2385 0 5 0ZM5 7C4.86739 7 4.74021 7.05268 4.64645 7.14645C4.55268 7.24021 4.5 7.36739 4.5 7.5C4.5 7.63261 4.55268 7.75979 4.64645 7.85355C4.74021 7.94732 4.86739 8 5 8C5.13261 8 5.25979 7.94732 5.35355 7.85355C5.44732 7.75979 5.5 7.63261 5.5 7.5C5.5 7.36739 5.44732 7.24021 5.35355 7.14645C5.25979 7.05268 5.13261 7 5 7ZM5 2.25C4.5193 2.25 4.05828 2.44096 3.71837 2.78087C3.37846 3.12078 3.1875 3.5818 3.1875 4.0625C3.1875 4.19511 3.24018 4.32229 3.33395 4.41605C3.42771 4.50982 3.55489 4.5625 3.6875 4.5625C3.82011 4.5625 3.94729 4.50982 4.04105 4.41605C4.13482 4.32229 4.1875 4.19511 4.1875 4.0625C4.18767 3.91502 4.22797 3.77036 4.30409 3.64404C4.38021 3.51773 4.48928 3.41451 4.6196 3.34546C4.74992 3.27641 4.89658 3.24414 5.04385 3.2521C5.19111 3.26005 5.33344 3.30795 5.45555 3.39064C5.57767 3.47333 5.67498 3.5877 5.73705 3.72148C5.79911 3.85527 5.8236 4.00343 5.80787 4.15007C5.79214 4.29671 5.73679 4.4363 5.64776 4.55388C5.55873 4.67146 5.43938 4.76259 5.3025 4.8175C4.9645 4.9525 4.5 5.2985 4.5 5.875V6C4.5 6.13261 4.55268 6.25979 4.64645 6.35355C4.74021 6.44732 4.86739 6.5 5 6.5C5.13261 6.5 5.25979 6.44732 5.35355 6.35355C5.44732 6.25979 5.5 6.13261 5.5 6C5.5 5.878 5.525 5.817 5.6305 5.765L5.674 5.745C6.06441 5.58795 6.38802 5.29998 6.58937 4.93046C6.79071 4.56094 6.85725 4.13289 6.77756 3.71969C6.69788 3.30649 6.47694 2.93388 6.15262 2.66574C5.82831 2.39759 5.42081 2.25061 5 2.25Z" fill="#333333"/>
</svg>
