<svg width="40" height="40" viewBox="0 0 40 40" fill="none" xmlns="http://www.w3.org/2000/svg">
<path d="M18.6243 4.99625L18.6243 4.99627L18.6189 4.99749C16.5696 5.46104 14.8344 7.06056 14.1226 9.17566C14.017 9.49738 13.9696 9.68102 13.9416 9.89743C13.9111 10.1322 13.9 10.4314 13.9 10.9888C13.9 11.5462 13.9111 11.8455 13.9416 12.0803C13.9697 12.2969 14.0172 12.4807 14.1229 12.8031C14.8424 14.9604 16.5894 16.5403 18.7095 16.9878L18.7095 16.9877L18.7163 16.9892C19.6423 17.1922 21.0726 17.1067 21.9116 16.8125L21.9133 16.8119C22.9325 16.4568 23.5098 16.0895 24.3284 15.2706C25.5448 14.044 26.1 12.6914 26.1 10.9888C26.1 9.28575 25.5444 7.93277 24.3272 6.70586C23.6828 6.05642 23.0921 5.63353 22.4682 5.35942C21.8456 5.08592 21.1412 4.93908 20.2403 4.90562C19.4544 4.88566 18.9515 4.92013 18.6243 4.99625Z" stroke="#333333" stroke-width="1.8"/>
<path d="M5.9 35C5.9 27.2128 12.2128 20.9 20 20.9C27.7872 20.9 34.1 27.2128 34.1 35V39.1H5.9V35Z" stroke="#333333" stroke-width="1.8"/>
</svg>
