<svg width="25" height="25" viewBox="0 0 25 25" fill="none" xmlns="http://www.w3.org/2000/svg">
<rect x="25" y="25" width="25" height="25" rx="12.5" transform="rotate(180 25 25)" fill="#333333"/>
<path d="M12.916 15.9954L12.921 15.0654L16.056 12.2554C16.3093 12.0321 16.481 11.8187 16.571 11.6154C16.6643 11.4121 16.711 11.2087 16.711 11.0054C16.711 10.7487 16.6543 10.5187 16.541 10.3154C16.4277 10.1087 16.271 9.94539 16.071 9.82539C15.871 9.70539 15.641 9.64539 15.381 9.64539C15.1143 9.64539 14.876 9.70872 14.666 9.83539C14.4593 9.95872 14.2977 10.1237 14.181 10.3304C14.0643 10.5371 14.0077 10.7604 14.011 11.0004H12.941C12.941 10.5337 13.046 10.1254 13.256 9.77539C13.4693 9.42206 13.761 9.14706 14.131 8.95039C14.501 8.75039 14.9243 8.65039 15.401 8.65039C15.8543 8.65039 16.261 8.75372 16.621 8.96039C16.981 9.16372 17.2643 9.44372 17.471 9.80039C17.681 10.1571 17.786 10.5637 17.786 11.0204C17.786 11.3504 17.7427 11.6304 17.656 11.8604C17.5693 12.0904 17.4393 12.3037 17.266 12.5004C17.0927 12.6971 16.876 12.9104 16.616 13.1404L14.196 15.3004L14.081 15.0004H17.786V15.9954H12.916Z" fill="white"/>
<path d="M9.2102 16.1504C8.7202 16.1504 8.28686 16.0437 7.9102 15.8304C7.53353 15.6137 7.23686 15.3171 7.0202 14.9404C6.80686 14.5637 6.7002 14.1304 6.7002 13.6404V11.1604C6.7002 10.6704 6.80686 10.2371 7.0202 9.86039C7.23686 9.48372 7.53353 9.18872 7.9102 8.97539C8.28686 8.75872 8.7202 8.65039 9.2102 8.65039C9.7002 8.65039 10.1335 8.75872 10.5102 8.97539C10.8869 9.18872 11.1819 9.48372 11.3952 9.86039C11.6119 10.2371 11.7202 10.6704 11.7202 11.1604V13.6404C11.7202 14.1304 11.6119 14.5637 11.3952 14.9404C11.1819 15.3171 10.8869 15.6137 10.5102 15.8304C10.1335 16.0437 9.7002 16.1504 9.2102 16.1504ZM9.2102 15.1504C9.47686 15.1504 9.71853 15.0871 9.9352 14.9604C10.1552 14.8304 10.3302 14.6571 10.4602 14.4404C10.5902 14.2204 10.6552 13.9754 10.6552 13.7054V11.0854C10.6552 10.8187 10.5902 10.5771 10.4602 10.3604C10.3302 10.1404 10.1552 9.96706 9.9352 9.84039C9.71853 9.71039 9.47686 9.64539 9.2102 9.64539C8.94353 9.64539 8.7002 9.71039 8.4802 9.84039C8.26353 9.96706 8.0902 10.1404 7.9602 10.3604C7.8302 10.5771 7.7652 10.8187 7.7652 11.0854V13.7054C7.7652 13.9754 7.8302 14.2204 7.9602 14.4404C8.0902 14.6571 8.26353 14.8304 8.4802 14.9604C8.7002 15.0871 8.94353 15.1504 9.2102 15.1504Z" fill="white"/>
</svg>
