<svg width="25" height="25" viewBox="0 0 25 25" fill="none" xmlns="http://www.w3.org/2000/svg">
<rect x="25" y="25" width="25" height="25" rx="12.5" transform="rotate(180 25 25)" fill="#333333"/>
<path d="M15.5948 16.1358C15.2381 16.1358 14.9031 16.0691 14.5898 15.9358C14.2765 15.7991 14.0048 15.6058 13.7748 15.3558C13.5481 15.1058 13.3831 14.8108 13.2798 14.4708L14.2898 14.1908C14.3865 14.5008 14.5548 14.7391 14.7948 14.9058C15.0348 15.0691 15.3015 15.1491 15.5948 15.1458C15.8581 15.1424 16.0898 15.0808 16.2898 14.9608C16.4898 14.8408 16.6465 14.6791 16.7598 14.4758C16.8731 14.2691 16.9298 14.0324 16.9298 13.7658C16.9298 13.3658 16.8048 13.0358 16.5548 12.7758C16.3081 12.5158 15.9848 12.3858 15.5848 12.3858C15.4715 12.3858 15.3548 12.4024 15.2348 12.4358C15.1181 12.4691 15.0081 12.5124 14.9048 12.5658L14.4148 11.7408L16.9548 9.49578L17.0648 9.79578H13.5648V8.80078H17.8948V9.79578L15.7848 11.8258L15.7748 11.4858C16.2281 11.4858 16.6215 11.5874 16.9548 11.7908C17.2881 11.9908 17.5448 12.2641 17.7248 12.6108C17.9081 12.9541 17.9998 13.3391 17.9998 13.7658C17.9998 14.2258 17.8915 14.6341 17.6748 14.9908C17.4615 15.3474 17.1731 15.6274 16.8098 15.8308C16.4498 16.0341 16.0448 16.1358 15.5948 16.1358Z" fill="white"/>
<path d="M9.67406 16.1504C9.18406 16.1504 8.75073 16.0437 8.37406 15.8304C7.9974 15.6137 7.70073 15.3171 7.48406 14.9404C7.27073 14.5637 7.16406 14.1304 7.16406 13.6404V11.1604C7.16406 10.6704 7.27073 10.2371 7.48406 9.86039C7.70073 9.48372 7.9974 9.18872 8.37406 8.97539C8.75073 8.75872 9.18406 8.65039 9.67406 8.65039C10.1641 8.65039 10.5974 8.75872 10.9741 8.97539C11.3507 9.18872 11.6457 9.48372 11.8591 9.86039C12.0757 10.2371 12.1841 10.6704 12.1841 11.1604V13.6404C12.1841 14.1304 12.0757 14.5637 11.8591 14.9404C11.6457 15.3171 11.3507 15.6137 10.9741 15.8304C10.5974 16.0437 10.1641 16.1504 9.67406 16.1504ZM9.67406 15.1504C9.94073 15.1504 10.1824 15.0871 10.3991 14.9604C10.6191 14.8304 10.7941 14.6571 10.9241 14.4404C11.0541 14.2204 11.1191 13.9754 11.1191 13.7054V11.0854C11.1191 10.8187 11.0541 10.5771 10.9241 10.3604C10.7941 10.1404 10.6191 9.96706 10.3991 9.84039C10.1824 9.71039 9.94073 9.64539 9.67406 9.64539C9.4074 9.64539 9.16406 9.71039 8.94406 9.84039C8.7274 9.96706 8.55406 10.1404 8.42406 10.3604C8.29406 10.5771 8.22906 10.8187 8.22906 11.0854V13.7054C8.22906 13.9754 8.29406 14.2204 8.42406 14.4404C8.55406 14.6571 8.7274 14.8304 8.94406 14.9604C9.16406 15.0871 9.4074 15.1504 9.67406 15.1504Z" fill="white"/>
</svg>
