<svg width="25" height="25" viewBox="0 0 25 25" fill="none" xmlns="http://www.w3.org/2000/svg">
<rect x="25" y="25" width="25" height="25" rx="12.5" transform="rotate(180 25 25)" fill="#333333"/>
<path d="M15.9351 16.0008V9.95078L14.5801 10.7758V9.61078L15.9351 8.80078H17.0001V16.0008H15.9351Z" fill="white"/>
<path d="M10.7742 16.1504C10.2842 16.1504 9.85083 16.0437 9.47416 15.8304C9.09749 15.6137 8.80083 15.3171 8.58416 14.9404C8.37083 14.5637 8.26416 14.1304 8.26416 13.6404V11.1604C8.26416 10.6704 8.37083 10.2371 8.58416 9.86039C8.80083 9.48372 9.09749 9.18872 9.47416 8.97539C9.85083 8.75872 10.2842 8.65039 10.7742 8.65039C11.2642 8.65039 11.6975 8.75872 12.0742 8.97539C12.4508 9.18872 12.7458 9.48372 12.9592 9.86039C13.1758 10.2371 13.2842 10.6704 13.2842 11.1604V13.6404C13.2842 14.1304 13.1758 14.5637 12.9592 14.9404C12.7458 15.3171 12.4508 15.6137 12.0742 15.8304C11.6975 16.0437 11.2642 16.1504 10.7742 16.1504ZM10.7742 15.1504C11.0408 15.1504 11.2825 15.0871 11.4992 14.9604C11.7192 14.8304 11.8942 14.6571 12.0242 14.4404C12.1542 14.2204 12.2192 13.9754 12.2192 13.7054V11.0854C12.2192 10.8187 12.1542 10.5771 12.0242 10.3604C11.8942 10.1404 11.7192 9.96706 11.4992 9.84039C11.2825 9.71039 11.0408 9.64539 10.7742 9.64539C10.5075 9.64539 10.2642 9.71039 10.0442 9.84039C9.82749 9.96706 9.65416 10.1404 9.52416 10.3604C9.39416 10.5771 9.32916 10.8187 9.32916 11.0854V13.7054C9.32916 13.9754 9.39416 14.2204 9.52416 14.4404C9.65416 14.6571 9.82749 14.8304 10.0442 14.9604C10.2642 15.0871 10.5075 15.1504 10.7742 15.1504Z" fill="white"/>
</svg>
