<svg width="25" height="25" viewBox="0 0 25 25" fill="none" xmlns="http://www.w3.org/2000/svg">
<rect x="25" y="25" width="25" height="25" rx="12.5" transform="rotate(180 25 25)" fill="#333333"/>
<path d="M16.901 16.5107V15.2035H13.5156V14.1722L15.9531 9.01074H17.1979L14.7604 14.1722H16.901V12.141H18.0052V14.1722H18.75V15.2035H18.0052V16.5107H16.901Z" fill="white"/>
<path d="M9.65511 16.667C9.14469 16.667 8.69331 16.5559 8.30094 16.3337C7.90858 16.108 7.59956 15.7989 7.37386 15.4066C7.15164 15.0142 7.04053 14.5628 7.04053 14.0524V11.4691C7.04053 10.9587 7.15164 10.5073 7.37386 10.1149C7.59956 9.72255 7.90858 9.41526 8.30094 9.19303C8.69331 8.96734 9.14469 8.85449 9.65511 8.85449C10.1655 8.85449 10.6169 8.96734 11.0093 9.19303C11.4016 9.41526 11.7089 9.72255 11.9312 10.1149C12.1568 10.5073 12.2697 10.9587 12.2697 11.4691V14.0524C12.2697 14.5628 12.1568 15.0142 11.9312 15.4066C11.7089 15.7989 11.4016 16.108 11.0093 16.3337C10.6169 16.5559 10.1655 16.667 9.65511 16.667ZM9.65511 15.6253C9.93289 15.6253 10.1846 15.5594 10.4103 15.4274C10.6395 15.292 10.8218 15.1114 10.9572 14.8857C11.0926 14.6566 11.1603 14.4014 11.1603 14.1201V11.391C11.1603 11.1132 11.0926 10.8614 10.9572 10.6357C10.8218 10.4066 10.6395 10.226 10.4103 10.0941C10.1846 9.95866 9.93289 9.89095 9.65511 9.89095C9.37733 9.89095 9.12386 9.95866 8.89469 10.0941C8.669 10.226 8.48844 10.4066 8.35303 10.6357C8.21761 10.8614 8.1499 11.1132 8.1499 11.391V14.1201C8.1499 14.4014 8.21761 14.6566 8.35303 14.8857C8.48844 15.1114 8.669 15.292 8.89469 15.4274C9.12386 15.5594 9.37733 15.6253 9.65511 15.6253Z" fill="white"/>
</svg>
