<svg width="74" height="74" viewBox="0 0 74 74" fill="none" xmlns="http://www.w3.org/2000/svg">
<path d="M4.17725 47.8206C6.68921 55.0014 11.5589 61.1231 17.9952 65.1913C24.4315 69.2595 32.0562 71.0352 39.6308 70.2298C47.2054 69.4244 54.2847 66.0853 59.7187 60.7549C65.1528 55.4246 68.6223 48.4161 69.5636 40.8682C70.5049 33.3202 68.8627 25.6761 64.9037 19.1778C60.9448 12.6795 54.9018 7.70872 47.7564 5.07298C40.611 2.43723 32.7829 2.2914 25.544 4.65916C18.3051 7.02692 12.0806 11.7692 7.88171 18.1155" stroke="black"/>
<path d="M6.37842 12.2495L7.98079 18.2297L13.9609 16.6273" stroke="black"/>
<path d="M37.2557 34.6065V60.2742M37.2557 34.6065L58.4839 24.0827M37.2557 34.6065L28.8157 30.2429M37.2557 60.2742L57.9535 49.2625C58.2799 49.0889 58.4839 48.7494 58.4839 48.3797V24.0827M37.2557 60.2742L16.0551 49.2604C15.7239 49.0883 15.5161 48.7462 15.5161 48.373V24.0827M58.4839 24.0827L49.2765 19.0729M15.5161 24.0827L22.4216 27.4195M15.5161 24.0827L36.7809 12.7845C37.0774 12.627 37.4331 12.6288 37.728 12.7892L43.9055 16.1504M22.4216 27.4195V38.541C22.4216 39.1652 22.9871 39.6368 23.6011 39.5248L24.7692 39.3116C25.064 39.2578 25.3675 39.3391 25.596 39.5332L26.9583 40.6901C27.6002 41.2351 28.5872 40.7913 28.6054 39.9495L28.8157 30.2429M22.4216 27.4195L43.9055 16.1504M28.8157 30.2429L49.2765 19.0729M43.9055 16.1504L49.2765 19.0729" stroke="#333333" stroke-linecap="round" stroke-linejoin="round"/>
</svg>
