<svg width="49" height="34" viewBox="0 0 49 34" fill="none" xmlns="http://www.w3.org/2000/svg">
<path d="M47.7689 5.30951C47.2093 3.21849 45.5659 1.57526 43.4749 1.01552C39.6888 3.03984e-07 24.4998 0 24.4998 0C24.4998 0 9.31105 3.03984e-07 5.52482 1.01552C3.43382 1.57526 1.79059 3.21849 1.23085 5.30951C0.215332 9.09571 0.215332 17 0.215332 17C0.215332 17 0.215332 24.9043 1.23085 28.6906C1.79059 30.7816 3.43382 32.4248 5.52482 32.9844C9.31105 34 24.4998 34 24.4998 34C24.4998 34 39.6888 34 43.4749 32.9844C45.5659 32.4248 47.2093 30.7816 47.7689 28.6906C48.7845 24.9043 48.7845 17 48.7845 17C48.7845 17 48.7804 9.09571 47.7689 5.30951Z" fill="#FF0000"/>
<path d="M19.6382 24.2849L32.2563 17.0004L19.6382 9.71582V24.2849Z" fill="white"/>
</svg>
